<svg width="300" height="300" viewBox="0 0 300 300" fill="none" xmlns="http://www.w3.org/2000/svg">
<g clip-path="url(#clip0_1_166)">
<path d="M150 300C109.93 300 72.27 284.4 43.93 256.07C15.6 227.73 0 190.07 0 150C0 109.93 15.6 72.27 43.93 43.93C72.27 15.6 109.93 0 150 0C190.07 0 227.73 15.6 256.07 43.93C284.4 72.26 300 109.93 300 150C300 190.07 284.4 227.73 256.07 256.07C227.74 284.4 190.07 300 150 300ZM39.35 166.11C37.14 166.11 35.04 167.08 33.6 168.78C32.1 170.55 31.5 172.92 31.98 175.2C41.28 219.21 73.98 254.07 117.3 266.17C117.97 266.36 118.65 266.45 119.32 266.45C121 266.45 122.65 265.89 123.99 264.82C125.88 263.32 126.94 261.01 126.84 258.61L125.19 218.73C125.08 216.01 123.51 213.57 121.08 212.33C112.5 207.97 104.77 201.72 98.12 193.76L80.55 172.72C79.9 171.95 79.27 171.16 78.65 170.38C77.29 168.65 75.24 167.6 73.04 167.51L39.65 166.13C39.55 166.13 39.44 166.13 39.34 166.13L39.35 166.11ZM260.65 166.11C260.55 166.11 260.44 166.11 260.34 166.11L226.95 167.5C224.75 167.59 222.7 168.64 221.34 170.37C220.73 171.15 220.09 171.93 219.44 172.71L201.87 193.75C195.22 201.71 187.5 207.96 178.91 212.32C176.48 213.55 174.91 216 174.8 218.72L173.15 258.6C173.05 261.01 174.11 263.32 176 264.81C177.35 265.88 179 266.44 180.67 266.44C181.35 266.44 182.03 266.35 182.69 266.16C226.02 254.06 258.71 219.2 268.01 175.19C268.49 172.92 267.89 170.55 266.39 168.77C264.96 167.08 262.85 166.1 260.64 166.1L260.65 166.11ZM150 29.36C98.68 29.36 52.9 61.84 36.08 110.19C35.26 112.54 35.66 115.15 37.15 117.15C38.57 119.07 40.82 120.19 43.19 120.19C43.29 120.19 43.4 120.19 43.5 120.19L74.33 118.91C75.62 118.86 76.87 118.47 77.97 117.8C85.67 113.05 96.31 110.64 109.59 110.64H190.39C203.67 110.64 214.31 113.05 222.01 117.8C223.11 118.48 224.36 118.86 225.65 118.91L256.48 120.19C256.58 120.19 256.69 120.19 256.79 120.19C259.16 120.19 261.41 119.07 262.83 117.15C264.32 115.15 264.71 112.54 263.9 110.19C247.08 61.84 201.3 29.36 149.98 29.36H150Z" fill="#1A1A1A"/>
</g>
<defs>
<clipPath id="clip0_1_166">
<rect width="300" height="300" fill="white"/>
</clipPath>
</defs>
</svg>
