<svg width="300" height="300" viewBox="0 0 300 300" fill="none" xmlns="http://www.w3.org/2000/svg">
<g clip-path="url(#clip0_1_120)">
<path d="M108.79 0H89.23V89.23H0V108.79H108.79V0Z" fill="#1A1A1A"/>
<path d="M300 89.23H210.77V0H191.21V108.79H300V89.23Z" fill="#1A1A1A"/>
<path d="M191.21 300H210.77V210.77H300V191.21H191.21V300Z" fill="#1A1A1A"/>
<path d="M108.79 300V191.21H0V210.77H89.23V300H108.79Z" fill="#1A1A1A"/>
<path d="M153.26 203.23H146.74V216.27H153.26V203.23Z" fill="#1A1A1A"/>
<path d="M153.26 259.32H146.74V272.36H153.26V259.32Z" fill="#1A1A1A"/>
<path d="M153.26 34.97H146.74V48.01H153.26V34.97Z" fill="#1A1A1A"/>
<path d="M153.26 6.92999H146.74V19.97H153.26V6.92999Z" fill="#1A1A1A"/>
<path d="M153.26 231.28H146.74V244.32H153.26V231.28Z" fill="#1A1A1A"/>
<path d="M153.26 287.36H146.74V300H153.26V287.36Z" fill="#1A1A1A"/>
<path d="M153.26 63.01H146.74V76.05H153.26V63.01Z" fill="#1A1A1A"/>
<path d="M153.26 91.06H146.74V104.1H153.26V91.06Z" fill="#1A1A1A"/>
<path d="M209.34 146.74H196.3V153.26H209.34V146.74Z" fill="#1A1A1A"/>
<path d="M181.3 146.74H168.26V153.26H181.3V146.74Z" fill="#1A1A1A"/>
<path d="M125.22 146.74H112.18V153.26H125.22V146.74Z" fill="#1A1A1A"/>
<path d="M265.43 146.74H252.39V153.26H265.43V146.74Z" fill="#1A1A1A"/>
<path d="M237.39 146.74H224.35V153.26H237.39V146.74Z" fill="#1A1A1A"/>
<path d="M293.47 146.74H280.43V153.26H293.47V146.74Z" fill="#1A1A1A"/>
<path d="M13.04 146.74H0V153.26H13.04V146.74Z" fill="#1A1A1A"/>
<path d="M41.08 146.74H28.04V153.26H41.08V146.74Z" fill="#1A1A1A"/>
<path d="M97.17 146.74H84.13V153.26H97.17V146.74Z" fill="#1A1A1A"/>
<path d="M69.12 146.74H56.08V153.26H69.12V146.74Z" fill="#1A1A1A"/>
<path d="M140.22 153.26H153.26V147.15V146.74H140.22V153.26Z" fill="#1A1A1A"/>
<path d="M134.65 71.49C136.67 71.49 138.3 69.85 138.3 67.84V27.14C138.3 25.12 136.67 23.48 134.65 23.48H119.42C117.4 23.48 115.77 25.12 115.77 27.14V67.84C115.77 69.85 117.4 71.49 119.42 71.49H134.65ZM120.05 32.39H134.02V39.6H120.05V32.39ZM120.05 55.38H134.02V62.59H120.05V55.38Z" fill="#1A1A1A"/>
<path d="M165.54 283.65H180.77C182.79 283.65 184.42 282.01 184.42 280V239.3C184.42 237.28 182.79 235.64 180.77 235.64H165.54C163.52 235.64 161.89 237.28 161.89 239.3V280C161.89 282.01 163.52 283.65 165.54 283.65ZM166.17 244.55H180.14V251.76H166.17V244.55ZM166.17 267.54H180.14V274.75H166.17V267.54Z" fill="#1A1A1A"/>
</g>
<defs>
<clipPath id="clip0_1_120">
<rect width="300" height="300" fill="white"/>
</clipPath>
</defs>
</svg>
