<svg width="300" height="300" viewBox="0 0 300 300" fill="none" xmlns="http://www.w3.org/2000/svg">
<g clip-path="url(#clip0_1_168)">
<path d="M150 28.9C182.35 28.9 212.76 41.5 235.63 64.37C258.5 87.24 271.1 117.66 271.1 150C271.1 182.34 258.5 212.76 235.63 235.63C212.76 258.5 182.34 271.1 150 271.1C117.66 271.1 87.24 258.5 64.37 235.63C41.5 212.76 28.9 182.34 28.9 150C28.9 117.66 41.5 87.24 64.37 64.37C87.24 41.5 117.66 28.9 150 28.9ZM150 0C67.16 0 0 67.16 0 150C0 232.84 67.16 300 150 300C232.84 300 300 232.84 300 150C300 67.16 232.84 0 150 0Z" fill="#1A1A1A"/>
<path d="M80.2995 20.3374L56.7862 37.1403L221.815 268.075L245.328 251.272L80.2995 20.3374Z" fill="#1A1A1A"/>
<path d="M145.77 107.01L155.21 98.22V77.34H124.57L145.77 107.01Z" fill="#1A1A1A"/>
<path d="M81.96 77.34H47.92V105.45H102.04L81.96 77.34Z" fill="#1A1A1A"/>
<path d="M140.06 158.67H90.34L120.19 130.85L104.05 108.26L47.17 161.27V186.78H155.21V179.86L140.06 158.67Z" fill="#1A1A1A"/>
<path d="M176.73 145.04V150.33L187.19 164.97H218.68L199.78 182.59L211.23 198.62L252.83 159.84V145.04H176.73Z" fill="#1A1A1A"/>
<path d="M176.2 209.24V222.66H185.79L176.2 209.24Z" fill="#1A1A1A"/>
<path d="M228.4 222.66H252.83V202.72H214.16L228.4 222.66Z" fill="#1A1A1A"/>
</g>
<defs>
<clipPath id="clip0_1_168">
<rect width="300" height="300" fill="white"/>
</clipPath>
</defs>
</svg>
