<svg width="300" height="336" viewBox="0 0 300 336" fill="none" xmlns="http://www.w3.org/2000/svg">
<g clip-path="url(#clip0_1_163)">
<path d="M300 309.59H0V335.48H300V309.59Z" fill="#1A1A1A"/>
<path d="M182.49 99.24L167.72 91.9C166.43 71.16 161.27 28.12 151.66 9.96C144.64 -3.32 45.6 -3.32 38.57 9.96C28.96 28.12 23.81 71.16 22.51 91.9L7.74 99.24C3.49 101.36 0 105.43 0 108.28C0 111.13 3.9 113.47 8.66 113.47H22.2V255.03C22.2 255.03 25.81 285.65 58.3 285.65H131.95C164.44 285.65 168.05 255.03 168.05 255.03V113.47H181.59C186.35 113.47 190.25 111.13 190.25 108.28C190.25 105.43 186.76 101.36 182.5 99.24H182.49ZM41.67 95.39C54.84 86.24 73.8 81.2 95.04 81.2H95.21C116.45 81.2 135.4 86.24 148.58 95.39C149.26 95.86 149.48 96.77 149.08 97.5L131.8 129.21C131.52 129.73 130.97 130.06 130.37 130.06H59.87C59.27 130.06 58.73 129.73 58.44 129.21L41.16 97.5C40.76 96.77 40.98 95.86 41.66 95.39H41.67ZM40.48 204.36C40.28 204.36 40.07 204.32 39.88 204.24C39.26 203.99 38.86 203.4 38.86 202.73V124.81C38.86 124.06 39.37 123.41 40.1 123.23C40.23 123.2 40.36 123.18 40.49 123.18C41.08 123.18 41.64 123.51 41.93 124.05L52.84 144.77C52.96 145 53.03 145.26 53.03 145.53V191.29C53.03 191.71 52.87 192.11 52.58 192.41L41.67 203.85C41.36 204.18 40.93 204.35 40.49 204.35L40.48 204.36ZM141.94 225.87C141.75 226.43 141.28 226.84 140.71 226.95C125.72 229.87 110.38 231.34 95.13 231.34C79.88 231.34 64.54 229.86 49.55 226.95C48.97 226.84 48.5 226.43 48.32 225.87C48.13 225.32 48.26 224.7 48.65 224.27C54.11 218.2 59.58 211.95 64.93 205.69C65.24 205.33 65.69 205.12 66.17 205.12C66.24 205.12 66.3 205.12 66.37 205.13C75.88 206.29 85.56 206.87 95.14 206.87C104.72 206.87 114.4 206.28 123.91 205.13C123.98 205.13 124.04 205.12 124.11 205.12C124.58 205.12 125.04 205.33 125.35 205.69C130.7 211.96 136.18 218.21 141.63 224.27C142.02 224.71 142.15 225.32 141.96 225.87H141.94ZM151.39 202.73C151.39 203.39 150.99 203.99 150.37 204.24C150.17 204.32 149.97 204.36 149.77 204.36C149.33 204.36 148.91 204.18 148.59 203.86L137.68 192.42C137.39 192.12 137.23 191.72 137.23 191.3V146.33C137.23 146.07 137.29 145.82 137.41 145.59L148.32 124.26C148.6 123.71 149.17 123.37 149.77 123.37C149.9 123.37 150.02 123.38 150.15 123.42C150.88 123.6 151.4 124.25 151.4 125V202.74L151.39 202.73Z" fill="#1A1A1A"/>
<path d="M209.53 189.26L254.77 240.18L300 189.26H268.1V50.2H241.43V189.26H209.53Z" fill="#1A1A1A"/>
</g>
<defs>
<clipPath id="clip0_1_163">
<rect width="300" height="335.48" fill="white"/>
</clipPath>
</defs>
</svg>
