<svg width="320" height="300" viewBox="0 0 320 300" fill="none" xmlns="http://www.w3.org/2000/svg">
<g clip-path="url(#clip0_1_165)">
<path d="M25.89 0H0V300H25.89V0Z" fill="#1A1A1A"/>
<path d="M227.25 104.05L212.48 96.71C211.19 75.97 206.03 32.93 196.42 14.77C189.4 1.49 90.36 1.49 83.33 14.77C73.72 32.93 68.57 75.97 67.27 96.71L52.5 104.05C48.24 106.17 44.75 110.24 44.75 113.09C44.75 115.94 48.65 118.28 53.41 118.28H66.95V259.84C66.95 259.84 70.56 290.46 103.05 290.46H176.7C209.19 290.46 212.8 259.84 212.8 259.84V118.29H226.34C231.1 118.29 235 115.95 235 113.1C235 110.25 231.51 106.18 227.25 104.06V104.05ZM86.43 100.2C99.6 91.05 118.56 86.01 139.8 86.01H139.97C161.21 86.01 180.16 91.05 193.34 100.2C194.02 100.67 194.24 101.58 193.84 102.31L176.56 134.02C176.28 134.54 175.73 134.87 175.13 134.87H104.64C104.04 134.87 103.5 134.54 103.21 134.02L85.93 102.31C85.53 101.58 85.75 100.67 86.43 100.2ZM85.24 209.17C85.04 209.17 84.83 209.13 84.64 209.05C84.02 208.8 83.62 208.21 83.62 207.54V129.62C83.62 128.87 84.13 128.22 84.86 128.04C84.99 128.01 85.12 127.99 85.25 127.99C85.84 127.99 86.4 128.32 86.69 128.86L97.6 149.58C97.72 149.81 97.79 150.07 97.79 150.34V196.1C97.79 196.52 97.63 196.92 97.34 197.22L86.43 208.66C86.12 208.99 85.69 209.16 85.25 209.16L85.24 209.17ZM186.7 230.68C186.51 231.24 186.04 231.65 185.47 231.76C170.48 234.68 155.14 236.15 139.89 236.15C124.64 236.15 109.3 234.67 94.31 231.76C93.73 231.65 93.26 231.24 93.08 230.68C92.89 230.13 93.02 229.51 93.41 229.08C98.87 223.01 104.34 216.76 109.69 210.5C110 210.14 110.45 209.93 110.93 209.93C111 209.93 111.06 209.93 111.13 209.94C120.64 211.1 130.32 211.68 139.9 211.68C149.48 211.68 159.16 211.09 168.67 209.94C168.74 209.94 168.8 209.93 168.87 209.93C169.34 209.93 169.8 210.14 170.11 210.5C175.46 216.77 180.94 223.02 186.39 229.08C186.78 229.52 186.91 230.13 186.72 230.68H186.7ZM196.15 207.54C196.15 208.2 195.75 208.8 195.13 209.05C194.93 209.13 194.73 209.17 194.53 209.17C194.09 209.17 193.67 208.99 193.35 208.67L182.44 197.23C182.15 196.93 181.99 196.53 181.99 196.11V151.14C181.99 150.88 182.05 150.63 182.17 150.4L193.08 129.07C193.36 128.52 193.93 128.18 194.53 128.18C194.66 128.18 194.78 128.19 194.91 128.23C195.64 128.41 196.16 129.06 196.16 129.81V207.55L196.15 207.54Z" fill="#1A1A1A"/>
<path d="M319.2 83.93L273.97 33.01L228.73 83.93H260.63V222.99H287.31V83.93H319.2Z" fill="#1A1A1A"/>
</g>
<defs>
<clipPath id="clip0_1_165">
<rect width="319.2" height="300" fill="white"/>
</clipPath>
</defs>
</svg>
