<svg width="300" height="165" viewBox="0 0 300 165" fill="none" xmlns="http://www.w3.org/2000/svg">
<g clip-path="url(#clip0_1_169)">
<path d="M225.57 113.7L226.31 113.68C240.51 113.27 247.94 104.69 247.94 96.43C247.94 93.54 247.15 90.91 245.66 88.84C244.2 86.65 241.91 84.8 239.01 83.45C232.47 93.51 224.76 101.99 216.08 108.64C216.72 111.83 217.85 115.47 217.86 115.51L218.01 115.98L206.31 120.89L206.15 120.28C206.11 120.14 205.38 117.27 205.02 115.59C203.89 116.19 202.74 116.74 201.47 117.31C196.33 119.59 191.94 120.75 188.41 120.75C181.09 120.75 176.71 116.09 176.71 108.29C176.71 102.1 179.4 94.95 183.74 89.63C188.57 83.57 195.24 78.47 203.03 74.88C203.22 70.33 203.54 65.87 203.87 61.66H199.02C193.54 61.66 188.54 61.56 184.37 61.47L183.38 61.45L181.95 50.2L183.22 50.32C187.2 50.69 191.76 50.74 195.69 50.74C197.26 50.74 198.82 50.74 200.37 50.72C201.87 50.72 203.35 50.7 204.79 50.7H204.95C205.41 46.69 205.96 42.97 206.57 39.64L206.75 38.66L219.16 39.94L219.04 40.52C219.03 40.59 217.68 47.29 217.12 50.6C227.71 50.45 236.85 49.75 242.71 49.19L243.95 49.07L243.47 60.37L242.5 60.43C236.03 60.85 226.77 61.24 215.69 61.55C215.33 65.2 215.06 68.26 214.84 71.07C218.17 70.38 221.75 70.03 225.51 70.03C227.94 70.03 230.34 70.19 232.63 70.5C233.31 69.05 233.89 67.57 234.45 66.14L234.84 65.15L246.73 69.46L246.19 70.55C245.97 70.98 245.76 71.43 245.54 71.88C245.23 72.51 244.93 73.13 244.61 73.75C249.16 75.87 252.78 78.66 255.09 81.86C258.29 86.32 259.98 91.6 259.98 97.12C259.98 110.34 249.77 124.38 230.25 125.66L229.84 125.69L225.6 113.74L225.57 113.7ZM202.73 87.34C199.11 89.64 195.87 92.57 193.08 96.05C190.45 99.29 188.82 102.95 188.82 105.6C188.82 107.64 189.75 108.63 191.66 108.63C192.91 108.63 194.47 108.2 196.58 107.29C198.98 106.22 201.22 105.02 203.42 103.62C202.99 98.96 202.76 93.62 202.72 87.34H202.73ZM214.35 82.13C214.35 87.3 214.44 91.33 214.61 94.97C219.08 90.84 223.27 85.93 226.81 80.69C226.39 80.69 225.95 80.69 225.51 80.69C221.64 80.69 217.89 81.18 214.35 82.15V82.13Z" fill="#1A1A1A"/>
<path d="M59.72 88.98H79.31L69.51 58.42L59.72 88.98Z" fill="#1A1A1A"/>
<path d="M267.03 0H32.97C14.79 0 0 14.79 0 32.97V131.33C0 149.51 14.79 164.3 32.97 164.3H267.03C285.21 164.3 300 149.51 300 131.33V32.97C300 14.79 285.21 0 267.03 0ZM91.06 125.65L84.14 104.07H54.87L47.95 125.65H29.69L57.58 38.64H81.43L109.32 125.65H91.06ZM281.62 131.33C281.62 139.38 275.07 145.92 267.03 145.92H128.33L169.38 18.37H267.03C275.08 18.37 281.62 24.92 281.62 32.96V131.32V131.33Z" fill="#1A1A1A"/>
</g>
<defs>
<clipPath id="clip0_1_169">
<rect width="300" height="164.3" fill="white"/>
</clipPath>
</defs>
</svg>
