<svg width="300" height="311" viewBox="0 0 300 311" fill="none" xmlns="http://www.w3.org/2000/svg">
<g clip-path="url(#clip0_1_164)">
<path d="M123.5 -0.499978C89.52 -0.519978 58.39 13.39 36.17 35.67C13.88 57.89 -0.0199784 89.02 2.15538e-05 123V310.35H80.65V123C80.67 111.04 85.39 100.58 93.2 92.7C101.08 84.89 111.53 80.17 123.49 80.15C135.45 80.17 145.91 84.89 153.79 92.7C161.6 100.58 166.31 111.04 166.33 123V167.53H161.31H113.81L206.9 282L299.98 167.53H253.89H246.98V123C247 89.02 233.1 57.89 210.81 35.67C188.61 13.39 157.48 -0.519978 123.5 -0.499978Z" fill="#1A1A1A"/>
</g>
<defs>
<clipPath id="clip0_1_164">
<rect width="300" height="310.86" fill="white"/>
</clipPath>
</defs>
</svg>
